HIERARCHY
ROOT Hips
{
     OFFSET 69.20940 97.25570 -65.39420
     CHANNELS 6 Xposition Yposition Zposition Zrotation Xrotation Yrotation
     JOINT Spine
     {
          OFFSET 0.00000 11.89050 0.00000
          CHANNELS 3 Zrotation Xrotation Yrotation
          JOINT Spine1
          {
               OFFSET 0.00000 25.65740 0.12766
               CHANNELS 3 Zrotation Xrotation Yrotation
               JOINT HEad
               {
                    OFFSET -0.00000 8.73416 0.01134
                    CHANNELS 3 Zrotation Xrotation Yrotation
                    End Site
                    {
                         OFFSET -0.29000 12.77420 2.51395
                    }
               }
               JOINT LeftShoulder1
               {
                    OFFSET 8.99000 -0.36225 -0.22000
                    CHANNELS 3 Zrotation Xrotation Yrotation
                    JOINT LeftArm
                    {
                         OFFSET 10.28270 -0.00338 0.32212
                         CHANNELS 3 Zrotation Xrotation Yrotation
                         JOINT LeftForeArm
                         {
                              OFFSET 32.76690 0.09914 -1.42434
                              CHANNELS 3 Zrotation Xrotation Yrotation
                              JOINT LeftHand
                              {
                                   OFFSET 27.56430 0.08536 1.02216
                                   CHANNELS 3 Zrotation Xrotation Yrotation
                                   End Site
                                   {
                                        OFFSET 16.74430 -0.60000 1.50291
                                   }
                              }
                         }
                    }
               }
               JOINT RightShoulder
               {
                    OFFSET -8.99000 -0.36225 -0.22000
                    CHANNELS 3 Zrotation Xrotation Yrotation
                    JOINT RightArm
                    {
                         OFFSET -10.28270 -0.00338 0.32212
                         CHANNELS 3 Zrotation Xrotation Yrotation
                         JOINT RightForeArm
                         {
                              OFFSET -32.89710 0.09914 -1.42434
                              CHANNELS 3 Zrotation Xrotation Yrotation
                              JOINT RightHand
                              {
                                   OFFSET -27.49210 0.08536 1.02216
                                   CHANNELS 3 Zrotation Xrotation Yrotation
                                   End Site
                                   {
                                        OFFSET -16.63120 -0.60000 1.50291
                                   }
                              }
                         }
                    }
               }
          }
     }
     JOINT LeftUpLeg
     {
          OFFSET 8.94580 -8.66707 0.10165
          CHANNELS 3 Zrotation Xrotation Yrotation
          JOINT LeftLeg
          {
               OFFSET -0.00000 -44.42270 1.37270
               CHANNELS 3 Zrotation Xrotation Yrotation
               JOINT LeftFoot
               {
                    OFFSET -0.25355 -42.09240 -1.46059
                    CHANNELS 3 Zrotation Xrotation Yrotation
                    JOINT LeftToes
                    {
                         OFFSET -0.04000 -4.41509 8.49910
                         CHANNELS 3 Zrotation Xrotation Yrotation
                         End Site
                         {
                              OFFSET 0.08000 -0.04745 9.77979
                         }
                    }
               }
          }
     }
     JOINT RightUpLeg
     {
          OFFSET -8.94580 -8.66707 0.10165
          CHANNELS 3 Zrotation Xrotation Yrotation
          JOINT RightLeg
          {
               OFFSET -0.00000 -44.42270 1.37270
               CHANNELS 3 Zrotation Xrotation Yrotation
               JOINT RightFoot
               {
                    OFFSET 0.25355 -42.09240 -1.46059
                    CHANNELS 3 Zrotation Xrotation Yrotation
                    JOINT RightToes
                    {
                         OFFSET 0.04000 -4.41509 8.49910
                         CHANNELS 3 Zrotation Xrotation Yrotation
                         End Site
                         {
                              OFFSET -0.08000 -0.13745 9.77979
                         }
                    }
               }
          }
     }
}
MOTION
Frames: 17
Frame Time: 0.01667
-18.20150 92.54460 1.00528 -16.22780 14.78270 -130.82100 -10.05140 18.39100 4.77407 -10.99100 36.00620 9.11009 -1.35180 -0.08113 -0.55632 -0.00000 0.00000 -0.00000 -131.36501 -61.86920 -98.85740 -101.69000 59.53690 -34.48240 12.10880 8.62546 -8.55060 7.57224 0.91620 5.26085 91.66150 -4.34650 79.40140 1.84403 32.36370 100.05800 23.52760 10.33410 -2.27232 27.48660 -7.71731 -15.57810 -38.19850 23.33600 72.68280 -5.10411 19.57030 1.07514 4.54307 -23.09460 -66.85750 -35.70390 17.92990 24.13520 39.69940 6.76154 -29.97940 -29.23710 8.83386 4.22863 2.84049 -48.84460 -4.34414 
-19.29280 93.30350 2.15787 -14.61030 15.56330 -135.37700 -10.97660 18.08610 4.74868 -10.88060 35.54340 8.12093 -2.93753 -0.88025 1.63957 -0.00000 0.00000 -0.00000 -130.26300 -63.80820 -98.80740 -101.76800 60.96290 -38.17350 12.61090 8.61244 -8.13278 7.13839 0.78322 4.26629 91.37130 -2.83489 78.78580 2.38647 32.76750 100.74200 23.38440 10.28730 -2.48252 28.02700 -7.13546 -15.36420 -38.02160 24.05260 72.96470 -5.68787 18.64090 1.17293 5.45462 -20.86870 -66.37940 -35.98800 16.62650 25.37600 37.90870 3.85912 -25.11340 -27.94360 11.30570 4.65658 2.76907 -45.92190 -4.08816 
-20.36760 93.81710 3.23554 -13.01710 15.98500 -140.27699 -12.54860 17.70070 4.92469 -10.83200 35.00370 7.13719 -4.46638 -1.88692 3.93281 -0.00000 0.00000 -0.00000 -127.51500 -65.50810 -97.72720 -99.43980 62.78410 -43.81060 13.27600 8.59782 -7.60618 6.88270 0.69130 3.51510 90.80000 -1.47706 78.40910 2.89636 33.04010 101.37700 23.30250 10.25420 -2.63371 28.33510 -6.57128 -15.34290 -37.99030 24.60210 73.22920 -6.63296 17.55810 1.33324 6.24284 -18.86940 -65.96780 -36.05150 14.11470 25.69680 36.29230 3.13526 -20.66140 -25.85060 12.83250 4.64895 2.67669 -42.65330 -3.79383 
-21.52580 94.25280 4.31215 -11.07330 16.33380 -145.46899 -13.84510 17.22270 4.92535 -10.71360 34.37660 6.18759 -5.89206 -3.22968 6.36372 -0.00000 0.00000 -0.00000 -125.77000 -67.09650 -98.26910 -95.96390 64.50960 -49.66050 14.18460 8.54993 -7.20657 6.55423 0.61801 2.94297 90.36910 -0.17396 78.31970 3.34742 33.31400 102.08900 23.24260 10.21760 -2.80463 28.79610 -5.76830 -16.04280 -37.83460 24.14990 73.20550 -7.77289 16.39040 1.51169 6.81283 -17.35150 -65.45660 -35.74940 11.53930 25.32840 34.67620 2.23547 -16.27250 -23.52640 14.43060 4.55576 2.53123 -38.88590 -3.54335 
-22.77770 94.59640 5.37901 -8.88977 16.53890 -150.86099 -14.80070 16.67660 4.70733 -10.55740 33.68580 5.26286 -7.07574 -4.89958 8.95312 -0.00000 0.00000 -0.00000 -127.74600 -68.73580 -103.18700 -92.99070 65.59950 -53.53310 15.33670 8.43362 -7.20373 6.10604 0.56559 2.59630 90.11320 1.09797 78.49810 3.70245 33.46890 102.92300 23.21400 10.16800 -3.04033 29.20110 -4.63929 -17.51600 -37.29970 22.64230 72.69360 -9.09921 15.16770 1.70051 7.13396 -16.39580 -64.68780 -35.19330 9.01920 24.29230 33.21770 1.11751 -12.49880 -21.14340 16.02400 4.38640 2.32288 -34.73390 -3.45215 
-24.08290 94.81670 6.41908 -6.63303 16.56130 -156.19099 -15.39410 16.10460 4.24590 -10.36620 32.96950 4.31523 -7.86180 -6.73218 11.68890 -0.00000 0.00000 -0.00000 -135.91400 -70.01870 -114.96700 -92.22320 65.54560 -53.10060 16.59010 8.21940 -7.82762 5.61275 0.54556 2.58603 89.91790 2.24791 78.89370 3.93907 33.36160 103.84300 23.21350 10.10110 -3.36087 29.37970 -3.28318 -19.48040 -36.19770 20.48090 71.57130 -10.56300 13.87370 1.88144 7.27500 -15.82460 -63.56970 -34.50840 6.73973 22.71810 32.13830 -0.17753 -10.06890 -19.03000 17.42170 4.18018 2.05179 -30.30160 -3.71913 
-25.53940 94.85490 7.48311 -4.31195 16.44520 -161.17300 -15.41050 15.62050 3.54883 -10.14690 32.31210 3.29002 -8.18238 -8.45445 14.51830 -0.00000 0.00000 -0.00000 -149.52901 -69.54750 -132.91701 -93.72720 63.87950 -47.59720 17.63730 7.91420 -9.12000 5.17816 0.56447 2.98670 89.98070 2.97642 79.46710 4.17618 33.34540 104.68600 23.12730 10.02070 -3.74388 29.17840 -2.50784 -21.29540 -34.84780 19.49100 70.15500 -12.55850 12.01330 2.06603 7.36662 -15.30300 -62.18050 -33.76930 4.84816 20.84350 31.60880 -1.47527 -9.51168 -17.41950 18.30770 3.96124 1.73995 -25.40380 -4.57712 
-26.97220 94.83680 8.56920 -2.23574 16.22590 -165.51900 -15.18160 15.24720 2.77853 -9.89824 31.78000 2.15433 -8.12563 -9.79511 17.34500 -0.00000 0.00000 -0.00000 -160.80200 -66.52180 -149.45200 -94.38410 60.43090 -39.44340 18.10500 7.61122 -10.72660 4.85806 0.61743 3.75689 90.24760 3.24708 80.10620 4.38511 33.42120 105.38200 22.95360 9.92986 -4.17930 28.57200 -1.95895 -22.65890 -33.13980 19.16070 68.68330 -14.46070 9.93713 2.14664 7.49534 -14.62570 -60.78740 -33.17800 3.47061 19.00800 31.64200 -2.46664 -10.87690 -16.56810 18.38720 3.77680 1.47335 -19.79950 -6.06188 
-28.35900 94.84930 9.72298 -0.48809 16.04840 -169.05499 -14.68550 15.02990 1.99547 -9.59925 31.43060 0.92453 -7.91848 -10.60990 20.05460 -0.00000 0.00000 -0.00000 -163.30600 -62.81900 -158.45100 -90.05000 55.58670 -32.28590 17.67020 7.48750 -11.93560 4.60892 0.68819 4.74276 90.67830 3.18845 80.70090 4.50925 33.56460 105.90000 22.73880 9.83459 -4.64350 27.81110 -1.19163 -23.47560 -31.13590 18.57430 67.48090 -15.58570 8.08769 2.08184 7.64590 -13.89780 -59.69270 -32.79100 2.67054 17.50140 32.09780 -2.81064 -13.54210 -16.42630 17.66050 3.63444 1.36843 -13.99980 -7.78512 
-29.72300 94.95520 10.96850 0.94352 16.02490 -171.79900 -13.86240 14.98680 1.23611 -9.24039 31.28390 -0.34658 -7.83199 -10.94130 22.56890 -0.00000 0.00000 -0.00000 -116.36100 -71.03300 -124.81300 -56.39220 40.78640 -51.33760 16.17470 7.97510 -9.94991 4.28578 0.75254 5.76209 91.25130 3.03824 81.16750 4.47637 33.73090 106.24900 22.55900 9.74228 -5.10058 27.06640 -0.15155 -23.70710 -29.13780 17.54640 66.79750 -15.76080 6.61931 1.91382 7.74912 -13.39520 -59.03630 -32.61370 2.40318 16.52050 32.79830 -2.30856 -16.55800 -16.82410 16.60580 3.56139 1.41545 -9.37793 -9.16690 
-31.08910 95.18180 12.27660 2.11240 16.18110 -173.92300 -12.67690 15.08960 0.50226 -8.83202 31.30000 -1.59342 -8.07960 -10.97520 24.87700 -0.00000 0.00000 -0.00000 -26.91760 -49.74740 -56.39670 -22.52540 -12.69940 -61.59400 4.16737 9.61321 -5.21253 3.69973 0.78497 6.69783 91.95180 3.03011 81.45520 4.20635 33.86640 106.47400 22.49310 9.65913 -5.51333 26.45670 1.17238 -23.45010 -27.40950 15.97910 66.63470 -15.00870 5.56216 1.68726 7.74312 -13.33240 -58.74380 -32.64240 2.57290 16.17290 33.64000 -1.04395 -19.20270 -17.62000 15.91340 3.62170 1.48331 -7.00957 -9.87593 
-32.46240 95.51790 13.56720 3.11607 16.43990 -175.70100 -11.08190 15.27570 -0.23316 -8.39786 31.38710 -2.73937 -8.76724 -10.93410 27.00200 -0.00000 0.00000 -0.00000 -0.59220 -21.55770 -50.96840 13.96950 -60.94860 -27.46370 -12.84230 10.89410 -4.20576 2.70903 0.76707 7.52639 92.75230 3.29502 81.54190 3.63676 33.92520 106.64200 22.60150 9.58806 -5.85671 26.08860 2.72164 -22.89410 -26.14420 13.88930 66.84850 -13.51590 4.88914 1.43803 7.59292 -13.78700 -58.63100 -32.84000 3.07789 16.47880 34.60730 0.63159 -21.21110 -18.68880 16.05900 3.87123 1.48214 -6.98796 -9.85903 
-33.82220 95.92860 14.74470 4.09011 16.65310 -177.42300 -8.97339 15.47090 -1.01089 -7.96264 31.43360 -3.67589 -9.88631 -10.97960 28.92100 -0.00000 0.00000 -0.00000 11.73850 -8.96826 -53.56630 -33.88330 -81.21780 -55.04620 -23.62490 11.61180 -3.77142 1.30751 0.69351 8.26947 93.59030 3.82079 81.42590 2.77145 33.88310 106.81800 22.91140 9.52836 -6.12524 26.06860 4.34366 -22.25380 -25.44210 11.44060 67.27930 -11.59600 4.58277 1.19696 7.29910 -14.71020 -58.52730 -33.09960 3.81724 17.34050 35.69100 2.29241 -22.65540 -19.86310 17.09840 4.30862 1.42029 -8.71130 -9.19878 
-35.13070 96.35740 15.74030 4.90425 16.70660 -179.24699 -6.83052 15.55280 -1.73190 -7.61210 31.33160 -4.24894 -11.31440 -11.16210 30.50680 -0.00000 0.00000 -0.00000 15.74880 -6.67970 -56.30320 -41.17020 -87.29280 -49.55720 -30.79610 11.28900 -0.70836 -0.32363 0.57603 8.91509 94.35120 4.47426 81.11580 1.71976 33.74350 107.04200 23.40130 9.47748 -6.32885 26.21110 5.92113 -21.64040 -25.28960 8.84207 67.75160 -9.55477 4.62198 0.98068 6.90938 -15.92310 -58.32420 -33.45380 4.42023 18.47070 36.84850 4.30001 -23.84810 -20.76730 18.46800 4.76903 1.36193 -11.33810 -8.13498 
-36.16580 96.52110 16.52730 5.23604 16.54390 178.73100 -5.75890 15.46430 -2.03141 -7.56214 31.04890 -4.27678 -12.82060 -11.42370 31.54330 -0.00000 0.00000 -0.00000 14.55790 -7.65708 -58.33410 -23.35190 -89.35190 -27.52260 -33.04040 10.78170 1.34374 -1.84002 0.44640 9.37248 94.87630 5.06705 80.62550 0.68644 33.53300 107.32000 23.99730 9.43317 -6.48384 26.02190 6.75836 -20.89750 -25.66300 7.61613 68.24070 -8.36420 4.75180 0.86129 6.50836 -17.15420 -57.96600 -33.73940 3.38724 19.10730 38.33630 9.53540 -25.55310 -20.63320 18.43770 4.73185 1.35718 -14.17580 -7.10833 
-37.08860 96.64940 17.17560 5.37536 16.16820 176.44099 -5.18858 15.29310 -1.94003 -7.78070 30.66580 -3.63594 -14.10300 -11.64580 31.81780 -0.00000 0.00000 -0.00000 9.21605 -10.39620 -59.50570 -84.37540 -88.46190 -91.36570 -30.84960 11.20010 -0.37952 -2.85266 0.34958 9.49119 95.01620 5.43754 79.97960 -0.10458 33.29210 107.63500 24.59240 9.39449 -6.60590 25.74900 7.25218 -20.18250 -26.30990 6.82918 68.77640 -7.62918 5.08786 0.80171 6.17480 -18.16520 -57.45400 -34.18790 2.67723 19.66130 39.73790 13.78060 -26.79500 -20.25330 18.82550 4.71459 1.39982 -16.91600 -6.62238 
-37.93850 96.81580 17.74250 5.47956 15.66120 173.98399 -4.84827 15.11010 -1.51529 -8.23057 30.27400 -2.34405 -14.87390 -11.72320 31.23180 -0.00000 0.00000 -0.00000 1.77185 -13.48240 -59.80040 -72.75820 -84.66700 -88.67670 -25.86800 11.70440 -3.46784 -3.09318 0.31980 9.13025 94.70640 5.51203 79.22790 -0.51732 33.06230 107.96900 25.08270 9.36098 -6.70923 25.54480 7.57008 -19.54690 -27.08210 6.15415 69.36470 -7.16323 5.63097 0.78024 5.93847 -18.87390 -56.86520 -34.60710 2.57541 20.04010 40.69900 16.70130 -27.22670 -19.57620 19.77840 4.72463 1.43940 -19.60300 -7.00985 
